<?xml version="1.0" encoding="utf-8"?>
<!DOCTYPE svg PUBLIC "-//W3C//DTD SVG 1.1//EN" "http://www.w3.org/Graphics/SVG/1.1/DTD/svg11.dtd" [
	<!ENTITY ns_svg "http://www.w3.org/2000/svg">
	<!ENTITY ns_xlink "http://www.w3.org/1999/xlink">
]>
<svg  version="1.1" xmlns="&ns_svg;" xmlns:xlink="&ns_xlink;" width="471.855" height="590.747" viewBox="0 0 471.855 590.747"
	 overflow="visible" enable-background="new 0 0 471.855 590.747" xml:space="preserve">
<g id="bg">
</g>
<g id="logo_bg">
	<rect x="6.204" y="6.228" fill="#FFA716" width="459.648" height="432.509"/>
</g>
<g id="logo">
	<g id="napis">
		<g>
			<path fill="#060506" d="M0.003,451.198L0,590.747h11.877c0,0,0-117.116,0-126.861c8.271,0,61.749,0,61.749,0l-12.664,41.228
				l35.892,85.633h13.656c0,0-34.74-83.129-36.089-86.428c0.964-3.294,16.623-53.122,16.623-53.122H0.003z"/>
			<rect x="6.333" y="499.57" fill="#060506" width="63.337" height="12.68"/>
		</g>
		<path fill="#060506" d="M182.884,451.198l3.165,12.688c0,0,74.647,0,92.631,0c-10.094,16.165-79.169,126.861-79.169,126.861
			h87.882v-12.684c0,0-47.992,0-64.132,0c10.086-16.173,79.17-126.866,79.17-126.866H182.884z"/>
		<g>
			<path fill="#060506" d="M364.184,451.198c0,0,0,115.702,0,126.866c-8.956,0-41.714,0-50.666,0c0-14.329,0-12.74,0-119.729
				l-12.667,19.823v112.589h75.996c0,0,0-115.701,0-126.861c10.03,0,72.317,0,82.343,0c0,11.16,0,126.861,0,126.861h12.665V451.198
				H364.184z"/>
			<rect x="411.686" y="462.297" fill="#060506" width="12.667" height="128.45"/>
		</g>
		<g>
			<rect x="105.295" y="499.57" fill="#060506" width="72.839" height="12.68"/>
			<path fill="#060506" d="M112.419,451.198l-19.415,64.42l7.412,17.997c0,0,19.313-62.54,21.509-69.729c6.622,0,31.098,0,37.999,0
				c1.945,7.57,30.138,116.788,30.138,116.788l9.003-14.443l-29.643-115.033H112.419z"/>
		</g>
	</g>
	<g id="monolit">
		<path d="M0,0v438.737h12.001c0,0,0-415.03,0-426.719c11.536,0,436.316,0,447.855,0c0,11.689,0,426.719,0,426.719h11.998V0H0z"/>
		<path d="M274.359,113.899c3.969,2.642,39.895,26.223,43.232,28.434c1.102,4.281,74.842,282.277,78.479,296.403
			c-14.316,0-289.797,0-304.184,0c3.717-14.126,77.961-289.604,79.616-295.898C177.525,141.121,269.462,115.297,274.359,113.899z"/>
		<g>
			<path fill="#FFFFFF" d="M162.423,135.884L83.041,438.737h12.384c72.029-274.278,71.951-274.369,76.871-293.177
				c6.023-1.722,97.147-27.802,102.064-29.208c3.993,2.67,38.789,25.895,42.091,28.106c1.141,4.352,77.262,294.279,77.262,294.279
				h12.341l-79.15-301.747L276.4,103.268L162.423,135.884z"/>
		</g>
		<g>
			<polyline fill="#FFFFFF" points="313.803,438.737 270.508,191.747 184.3,157.604 116.927,438.737 			"/>
		</g>
	</g>
</g>
<g id="spacer">
	<rect x="0.003" y="438.518" fill="#FFFFFF" width="471.852" height="12.68"/>
</g>
</svg>
