<?xml version="1.0" encoding="UTF-8" standalone="no"?>
<!-- Generator: Adobe Illustrator 15.1.0, SVG Export Plug-In . SVG Version: 6.00 Build 0)  -->

<svg
   xmlns:dc="http://purl.org/dc/elements/1.1/"
   xmlns:cc="http://creativecommons.org/ns#"
   xmlns:rdf="http://www.w3.org/1999/02/22-rdf-syntax-ns#"
   xmlns:svg="http://www.w3.org/2000/svg"
   xmlns="http://www.w3.org/2000/svg"
   xmlns:sodipodi="http://sodipodi.sourceforge.net/DTD/sodipodi-0.dtd"
   xmlns:inkscape="http://www.inkscape.org/namespaces/inkscape"
   version="1.1"
   id="Layer_1"
   x="0px"
   y="0px"
   width="2048px"
   height="2048px"
   viewBox="0 0 2048 2048"
   enable-background="new 0 0 2048 2048"
   xml:space="preserve"
   inkscape:version="0.48.4 r9939"
   sodipodi:docname="RAZUM_white.svg"><metadata
     id="metadata26"><rdf:RDF><cc:Work
         rdf:about=""><dc:format>image/svg+xml</dc:format><dc:type
           rdf:resource="http://purl.org/dc/dcmitype/StillImage" /></cc:Work></rdf:RDF></metadata><defs
     id="defs24" /><sodipodi:namedview
     pagecolor="#000000"
     bordercolor="#666666"
     borderopacity="1"
     objecttolerance="10"
     gridtolerance="10"
     guidetolerance="10"
     inkscape:pageopacity="1"
     inkscape:pageshadow="2"
     inkscape:window-width="935"
     inkscape:window-height="964"
     id="namedview22"
     showgrid="false"
     showborder="false"
     borderlayer="true"
     inkscape:zoom="0.2182057556231"
     inkscape:cx="820.6968062626"
     inkscape:cy="1159.763934799"
     inkscape:window-x="313"
     inkscape:window-y="161"
     inkscape:window-maximized="0"
     inkscape:current-layer="Layer_1" /><path
     style="display:none"
     inkscape:connector-curvature="0"
     id="path16"
     d="m 808.765,751.464 c 0,11.074 0,399.383 0,409.304 h 68.229 l 76.127,-290.432 109.382,-31.302 48.467,32.363 75.904,289.37 h 51.689 c 0,-9.921 0,-398.229 0,-409.304 -11.073,0.001 -418.728,0.001 -429.798,0.001 z"
     display="none" /><g
     id="g3012"><g
       id="napis_6_"><path
         d="m 616.486,1888.186 h 39.979 c 0,0 -101.71,-243.384 -105.66,-253.043 2.824,-9.646 48.667,-155.527 48.667,-155.527 H 332.929 l -0.012,408.57 h 34.773 c 0,0 0,-124.594 0,-229.822 h 152.47 l 96.326,229.822 z M 367.69,1516.764 c 24.217,0 180.791,0 180.791,0 l -32.093,104.479 H 367.69 c 0,-52.931 0,-95.231 0,-104.479 z"
         id="path8"
         inkscape:connector-curvature="0"
         style="fill:#ffffff" /><path
         d="m 868.364,1479.615 9.266,37.148 c 0,0 218.553,0 271.203,0 -29.549,47.329 -231.787,371.422 -231.787,371.422 h 257.296 v -37.134 c 0,0 -140.51,0 -187.763,0 29.529,-47.353 231.79,-371.437 231.79,-371.437 H 868.364 z"
         id="path10"
         inkscape:connector-curvature="0"
         style="fill:#ffffff" /><path
         d="m 1399.171,1479.615 c 0,0 0,338.748 0,371.437 -26.218,0 -122.133,0 -148.339,0 0,-41.954 0,-37.3 0,-350.543 l -37.086,58.037 v 329.64 h 222.499 c 0,0 0,-338.751 0,-371.422 12.96,0 55.736,0 101.999,0 v 371.422 h 37.086 v -371.422 c 46.269,0 89.039,0 101.999,0 0,32.671 0,371.422 0,371.422 h 37.08 v -408.57 h -315.238 z"
         id="path12"
         inkscape:connector-curvature="0"
         style="fill:#ffffff" /><path
         d="m 889.377,1858.691 26.361,-42.288 -86.79,-336.788 H 662.054 l -56.842,188.604 21.701,52.692 c 0,0 8.515,-27.577 19.312,-62.548 h 191.446 c 24.314,94.211 51.706,200.328 51.706,200.328 z m -231.69,-237.449 c 14.414,-46.716 29.108,-94.354 32.2,-104.479 19.389,0 91.05,0 111.253,0 1.972,7.675 13.165,51.054 26.95,104.479 H 657.687 z"
         id="path14"
         inkscape:connector-curvature="0"
         style="fill:#ffffff" /></g><path
       d="M 675.407,1442.49 872.508,620.033 1124.909,720 l 126.644,722.49 h 233.904 c -6.858,-26.116 -222.756,-848.406 -226.039,-860.943 -9.671,-6.477 -111.544,-74.473 -123.235,-82.291 -14.396,4.118 -281.187,80.474 -298.821,85.515 -14.402,55.051 -14.176,55.337 -224.892,857.72 h 62.937 z"
       id="path18"
       inkscape:connector-curvature="0"
       style="fill:#ffffff" /><path
       d="m 332.917,158.604 v 1284.53 h 0.012 v -0.644 h 35.125 c 0,-30.267 0,-1214.916 0,-1248.701 33.773,0 1277.443,0 1311.229,0 0,33.785 0,1218.434 0,1248.701 h 35.126 V 158.604 H 332.917 z"
       id="path20"
       inkscape:connector-curvature="0"
       style="fill:#ffffff" /></g></svg>